# xmcd
#
# Track frame offsets: 
#        150
#        12699
#        26059
#        40208
#        54379
#        79630
#        92864
#        113317
#        125188
#        138488
#        152878
#        192772
#        206207
#        224503
#        237963
#        252225
#        268570
#        282164
#        297000
#
# Disc length: 4135 seconds
#
# Revision: 0
# Processed by: cddbd v1.5.2PL0 Copyright (c) Steve Scherf et al.
# Submitted via: ExactAudioCopy v0.99pb3
#
DISCID=1b102513
DTITLE=The ways of the blues N°3 - The ways of the blues N°2 - Gospels
DTITLE=In The BluesStars of the slide guitar of the blues
DYEAR=2004
DGENRE=Blues
TTITLE0=Travelling riverside blues , Rrobert Johnson
TTITLE1=God don't nerver change , Blind Willie Johnson
TTITLE2=High sheriff blues , Charlie Patton
TTITLE3=Homesick and lonesome blues , Blind Boy Fuller
TTITLE4=Mamie , Muddy Waters
TTITLE5=Packin' Trunk , Leadbelly
TTITLE6=Pearline , Son House
TTITLE7=Bukka's jitterbug swing , Bukka White
TTITLE8=You can't get that stuff no more , Tampa Red, Georgia Tom
TTITLE9=Solid gold , Johny Shines
TTITLE10=Celebrated walkin' blues , Taj Mahal
TTITLE11=Every morning , Keb' Mo'
TTITLE12=King Cotton , Corey Harris, Henry Butler
TTITLE13=Guitar rag , Sylvester Weaver
TTITLE14=Hard road blues , Buddy Moss
TTITLE15=Big fat mama , Papa Too Sweet
TTITLE16=Moanin' the blues , Allen Shaw
TTITLE17=Western bound blues , Tampa Red, the "guitar wizard"
TTITLE18=Bottleneck blues , Weaver and Beasley
EXTD=
EXTT0=
EXTT1=
EXTT2=
EXTT3=
EXTT4=
EXTT5=
EXTT6=
EXTT7=
EXTT8=
EXTT9=
EXTT10=
EXTT11=
EXTT12=
EXTT13=
EXTT14=
EXTT15=
EXTT16=
EXTT17=
EXTT18=
PLAYORDER=
